<svg xmlns="http://www.w3.org/2000/svg" version="1.1" xmlns:xlink="http://www.w3.org/1999/xlink" xmlns:svgjs="http://svgjs.com/svgjs" width="512" height="512" x="0" y="0" viewBox="0 0 64 64" style="enable-background:new 0 0 512 512" xml:space="preserve" class=""><g><path d="M56.761 19.489a12.19 12.19 0 0 0 4.1-.708A31.951 31.951 0 0 0 45.219 3.135a12.25 12.25 0 0 0 11.542 16.354zM60.865 45.219a12.25 12.25 0 0 0-15.646 15.646 31.951 31.951 0 0 0 15.646-15.646zM3.135 18.781a12.19 12.19 0 0 0 4.1.708 12.263 12.263 0 0 0 12.25-12.25 12.186 12.186 0 0 0-.708-4.1A31.951 31.951 0 0 0 3.135 18.781zM7.239 44.511a12.19 12.19 0 0 0-4.1.708 31.951 31.951 0 0 0 15.642 15.646 12.186 12.186 0 0 0 .708-4.1 12.263 12.263 0 0 0-12.25-12.254zM32 19.75A12.25 12.25 0 1 0 44.25 32 12.263 12.263 0 0 0 32 19.75zm5.615 7.923-5 12a1.75 1.75 0 1 1-3.23-1.346l3.99-9.577H28A1.749 1.749 0 0 1 26.25 27 1.749 1.749 0 0 1 28 25.25h8a1.749 1.749 0 0 1 1.615 2.423z" fill="#cb6e9b" data-original="#000000" class=""></path><path d="M62.149 22.039a15.68 15.68 0 0 1-5.388.95A15.753 15.753 0 0 1 41.96 1.851a31.782 31.782 0 0 0-19.92 0 15.675 15.675 0 0 1 .949 5.388 15.768 15.768 0 0 1-15.75 15.75 15.676 15.676 0 0 1-5.388-.95 31.788 31.788 0 0 0 0 19.922 15.751 15.751 0 0 1 21.138 14.8 15.675 15.675 0 0 1-.949 5.388 31.782 31.782 0 0 0 19.92 0 15.751 15.751 0 0 1 20.189-20.188 31.788 31.788 0 0 0 0-19.922zM32 47.75A15.75 15.75 0 1 1 47.75 32 15.767 15.767 0 0 1 32 47.75z" fill="#cb6e9b" data-original="#000000" class=""></path></g></svg>