<svg clip-rule="evenodd" fill-rule="evenodd" height="512" image-rendering="optimizeQuality" shape-rendering="geometricPrecision" text-rendering="geometricPrecision" viewBox="0 0 173.397 173.397" width="512" xmlns="http://www.w3.org/2000/svg"><g id="Layer_x0020_1"><circle cx="86.699" cy="86.699" fill="#699" r="84.667"/><g id="_140196920" fill="#fefefe"><path id="_140203528" d="m86.6985 41.7972c-24.759 0-44.9006 20.1427-44.9006 44.9014 0 24.7582 20.1415 44.9015 44.9006 44.9015 24.7593-.0002 44.9007-20.1431 44.9007-44.9015.0002-24.7588-20.1415-44.9013-44.9007-44.9014zm0 92.4427c-26.2143 0-47.5406-21.327-47.5406-47.5413.0002-26.2144 21.3263-47.5413 47.5406-47.5413 26.2144-.0001 47.5407 21.3269 47.5407 47.5413 0 26.2143-21.3263 47.5415-47.5407 47.5413z"/><path id="_140202856" d="m86.6985 31.6956c-30.3277 0-55.0023 24.6742-55.0023 55.003.0001 30.3285 24.6744 55.0032 55.0023 55.0032 30.3281-.0002 55.0023-24.6746 55.0023-55.0032.0002-30.3291-24.6744-55.003-55.0023-55.003zm0 112.646c-15.3976 0-29.8719-5.9971-40.7595-16.8826-10.8875-10.8882-16.8828-25.3637-16.8828-40.7604.0001-15.3971 5.9951-29.8724 16.8828-40.7596 10.8878-10.8875 25.3619-16.8834 40.7595-16.8834 15.3979 0 29.8719 5.9962 40.7596 16.8834 10.8878 10.8871 16.8827 25.3625 16.8827 40.7596.0002 15.3966-5.995 29.8723-16.8827 40.7604-10.8876 10.8853-25.3618 16.8828-40.7596 16.8826z"/><path id="_140202352" d="m86.0891 54.8325c-.479 0-.9557.1508-1.3408.4531-.5018.3969-.802.9629-.8433 1.5933-.0388.6193.1879 1.2286.6233 1.6711.2454.2497.3804.5871.3782.9373-.0021.3501-.1467.685-.3965.9302l-4.322 4.2386c-.1374.1346-.3049.2403-.4859.3044-1.9156.6784-4.5605 1.4765-8.085 2.4392-1.2306.3334-2.8875.6639-4.5444.9075-2.1356.3417-4.0608 1.3125-5.5527 2.805-3.4533 3.4519-4.4642 9.9417-.0779 14.4073 2.7296 2.7796 6.5817 3.7508 10.3056 2.5985 3.7102-1.1487 6.3319-4.1139 7.0102-7.9326.2681-1.62.6279-3.2679.9877-4.5051.5318-1.8411 1.5721-5.3293 2.5575-7.9716.0665-.1813.1742-.3454.3117-.481l4.3725-4.2935c.5203-.5113 1.3543-.5032 1.8654.0167.4356.4432 1.0427.6823 1.6638.6523.6303-.0294 1.2008-.3179 1.6041-.8131.628-.7704.6371-1.9399.0207-2.7197-.5567-.7049-1.4736-1.0011-2.333-.7545-.4652.1334-.967.0018-1.3062-.3438-.3392-.3457-.4629-.8494-.3208-1.3124.2636-.8552-.0184-1.7767-.7151-2.3474-.3918-.3195-.8845-.4798-1.3771-.4798zm-17.3846 36.3876c-3.3894 0-6.6872-1.3462-9.1462-3.851-2.4816-2.527-3.7904-5.841-3.6849-9.3312.0985-3.2845 1.4758-6.4893 3.7789-8.7924 1.8883-1.8883 4.3152-3.1148 7.0194-3.5475 1.5767-.2318 3.1189-.539 4.251-.8456 3.2451-.8865 5.8094-1.6544 7.6244-2.2846l3.3046-3.2396c-.4332-.7928-.6394-1.6994-.5798-2.6166.0871-1.3689.7585-2.6443 1.8424-3.4993 1.7579-1.3849 4.29-1.361 6.0226.0566 1.0429.8525 1.6614 2.0636 1.7669 3.3445 1.2766.1292 2.475.7665 3.3091 1.82 1.3866 1.7561 1.3659 4.2898-.0458 6.0248-.8729 1.0696-2.1588 1.7189-3.5292 1.7822-.9212.0415-1.8241-.1803-2.6125-.6272l-3.3502 3.2909c-.9237 2.5258-1.8885 5.7669-2.3927 7.5115-.3275 1.1265-.6738 2.7012-.9213 4.2155-.8592 4.8271-4.1616 8.5627-8.8343 10.0089-1.2602.3898-2.5483.5803-3.8224.5801z"/><path id="_140202632" d="m83.5385 69.4922c-.3369 0-.6739-.1287-.9329-.3865l-4.3633-4.3645c-.5156-.5156-.5156-1.3511 0-1.8665.5156-.5157 1.3498-.5157 1.8654 0l4.3657 4.3642c.5156.5153.5156 1.3514 0 1.8668-.2589.2575-.5959.3866-.9349.3865z"/><path id="_140202240" d="m113.355 78.5927c-.479 0-.958.1508-1.3407.4531-.5042.3969-.8021.9629-.8433 1.5934-.0389.6192.1878 1.2286.6233 1.6711.2453.2499.3804.5871.3781.9372-.0043.3501-.1467.685-.3964.9303l-4.3221 4.2386c-.1374.1345-.3048.2402-.4859.3043-1.9202.6795-4.565 1.4775-8.085 2.4393-1.2306.3329-2.8852.6636-4.5444.9075-2.1355.3419-4.0608 1.3127-5.5549 2.805-3.4511 3.4521-4.4619 9.942-.0779 14.4072 2.7295 2.7794 6.5816 3.7511 10.3056 2.5985 3.7127-1.1487 6.3318-4.1137 7.0125-7.9326.266-1.62.6278-3.2678.9876-4.5049.5319-1.8415 1.5722-5.3302 2.5553-7.9718.0688-.1812.1741-.3453.3117-.4808l4.3727-4.2937c.52-.511 1.3564-.503 1.8674.017.4356.443 1.0405.6788 1.6638.6522.6304-.0293 1.1985-.3178 1.6019-.8131.6279-.7705.637-1.9401.0229-2.7199-.559-.7048-1.4736-1.0011-2.3329-.7544-.4652.1337-.9671.0018-1.3063-.3438-.3391-.3457-.4629-.8493-.3208-1.3125.2637-.8552-.0183-1.7764-.715-2.3471-.3919-.3198-.8846-.4801-1.3772-.4801zm-17.3845 36.3876c-3.3918 0-6.6872-1.3461-9.1485-3.8507-2.4817-2.5273-3.7905-5.8411-3.685-9.3313.1008-3.2847 1.4781-6.4895 3.7813-8.7924 1.8883-1.8884 4.3152-3.115 7.0193-3.5477 1.5768-.2323 3.1213-.5392 4.2511-.8456 3.2427-.8856 5.8048-1.6537 7.6243-2.2846l3.3026-3.2395c-.4309-.7928-.6374-1.6992-.5801-2.6164.0873-1.3689.7608-2.6444 1.8448-3.4996 1.7578-1.3846 4.29-1.3606 6.0225.0569 1.0429.8523 1.6592 2.0636 1.7669 3.3444 1.2767.129 2.475.7664 3.3069 1.8198 1.3888 1.7564 1.3681 4.29-.0459 6.0248-.8706 1.0696-2.1587 1.7192-3.5268 1.7823-.9212.0409-1.8265-.1802-2.6125-.627l-3.3502 3.2907c-.9261 2.525-1.8909 5.7664-2.3927 7.5115-.3298 1.1265-.6738 2.7011-.9236 4.2155-.8569 4.8271-4.1594 8.5626-8.8321 10.0089-1.2602.3898-2.5483.5802-3.8223.58z"/><path id="_140201680" d="m110.805 93.2525c-.337 0-.6763-.1288-.9329-.3866l-4.3654-4.3645c-.5156-.5156-.5159-1.3512-.0002-1.8666.5158-.5158 1.352-.5155 1.8676 0l4.3634 4.3644c.5156.5153.5156 1.3513 0 1.8667-.2565.2576-.5958.3866-.9325.3866z"/><path id="_140199664" d="m69.0002 101.591c-1.0748 0-1.9504.8746-1.9504 1.9494.0001 1.0747.8754 1.9492 1.9502 1.9492s1.9502-.8745 1.9502-1.9492c.0001-1.0749-.8754-1.9493-1.95-1.9494zm0 6.5386c-2.5301 0-4.5881-2.0588-4.5881-4.5892.0001-2.5306 2.0579-4.5891 4.5879-4.5891 2.5302-.0001 4.5902 2.0586 4.5902 4.5891.0001 2.5303-2.0602 4.5892-4.59 4.5892z"/><path id="_140199608" d="m94.2726 81.8597c-2.5299 0-4.5903-2.0588-4.5903-4.5893.0001-2.5307 2.0602-4.5892 4.5902-4.5892.7289-.0002 1.32.5907 1.32 1.3197.0001.729-.5912 1.32-1.32 1.32-1.0748-.0001-1.9502.8745-1.9502 1.9495.0001 1.0748.8754 1.9493 1.9502 1.9493.7289 0 1.32.591 1.32 1.32.0001.7288-.5912 1.32-1.3199 1.32z"/><path id="_140199384" d="m71.113 56.8279c-1.1756 0-2.3513-.4472-3.2451-1.3421-.5156-.5154-.5156-1.3511 0-1.8665.5156-.5158 1.3521-.5156 1.8655 0 .7608.7599 1.9983.7601 2.7591 0 .7585-.7601.7585-1.9967 0-2.7569-.5156-.5154-.5156-1.3514 0-1.8668.5134-.5156 1.3498-.5156 1.8654 0 1.7899 1.7892 1.7898 4.7009 0 6.4902-.8937.8948-2.0693 1.3423-3.2449 1.3421z"/><path id="_140200392" d="m90.9885 124.787c-.7286 0-1.32-.5889-1.32-1.32 0-1.0748-.8731-1.9479-1.9479-1.9479-1.0747-.0001-1.9502.8731-1.9502 1.9479 0 .7309-.5912 1.32-1.32 1.32-.7286 0-1.32-.5889-1.32-1.32.0002-2.5302 2.0602-4.5882 4.5902-4.5882 2.53-.0001 4.5879 2.0582 4.5879 4.5882 0 .7309-.5889 1.32-1.32 1.32z"/><path id="_140200840" d="m108.623 55.7257c-1.0747 0-1.9504.8748-1.9504 1.9496.0001 1.0746.8754 1.9493 1.9502 1.9493 1.0748-.0002 1.9479-.8745 1.9479-1.9493.0001-1.0748-.8731-1.9495-1.9477-1.9496zm0 6.5387c-2.5301 0-4.5904-2.0587-4.5904-4.5891.0001-2.5306 2.0602-4.5893 4.5902-4.5893 2.5302 0 4.5879 2.0589 4.5879 4.5893.0001 2.5304-2.0579 4.5893-4.5877 4.5891z"/></g></g></svg>