<svg fill="none" height="512" viewBox="0 0 512 512" width="512" xmlns="http://www.w3.org/2000/svg"><path d="m480 96h-448v320h448z" fill="#e92b2b"/><path d="m192 256v-160h-160v160z" fill="#2a2faf"/><g clip-rule="evenodd" fill-rule="evenodd"><path d="m120.288 152.137-8.237-24.137-8.142 23.858-21.2132-14.884 8.0672 24.195h-26.6619l21.3187 14.747-21.4198 14.607 26.655.172-8.2388 24.142 21.3228-14.75 7.974 23.913 8.407-24.08 21.565 14.917-8.145-23.866 26.357.17-21.459-15.057 21.562-14.915h-26.351l8.314-23.813z" fill="#fbfbfb"/><path d="m112 154c-12.1503 0-22 9.85-22 22s9.8497 22 22 22c12.15 0 22-9.85 22-22s-9.85-22-22-22zm-26 22c0-14.359 11.6406-26 26-26 14.359 0 26 11.641 26 26s-11.641 26-26 26c-14.3594 0-26-11.641-26-26z" fill="#2a2faf"/></g></svg>